# xmcd CD database file
#
# Track frame offsets:
#	150
#	23192
#	54116
#	71087
#	100985
#	125550
#	158411
#	193473
#
# Disc length: 2793 seconds
#
# Revision: 0
# Processed by: cddbd v1.5.2PL0 Copyright (c) Steve Scherf et al.
# Submitted via: CDex 1.51
#
DISCID=690ae708
DTITLE=Peter Nordwall Ensemble - Kanon
DYEAR=2006
DGENRE=Jazz
TTITLE0=Abel spendabel
TTITLE1=Tango mango
TTITLE2=Åka buss
TTITLE3=Reggae dish
TTITLE4=Kanonlåt
TTITLE5=Tip-top
TTITLE6=Skymmning
TTITLE7=Till dig
EXTD=YEAR: 2006
EXTT0=
EXTT1=
EXTT2=
EXTT3=
EXTT4=
EXTT5=
EXTT6=
EXTT7=
PLAYORDER=
